PathFileType	4	(X/Y/Z)	pose_F01_0-91.trc
DataRate	CameraRate	NumFrames	NumMarkers	Units	OrigDataRate	OrigDataStartFrame	OrigNumFrames
30	30	6	21	m	30	56	91
Frame#	Time	CHip			RHip			RKnee			RAnkle			RBigToe			RSmallToe			RHeel			LHip			LKnee			LAnkle			LBigToe			LSmallToe			LHeel			Neck			Nose			RShoulder			RElbow			RWrist			LShoulder			LElbow			LWrist			
		X1	Y1	Z1	X2	Y2	Z2	X3	Y3	Z3	X4	Y4	Z4	X5	Y5	Z5	X6	Y6	Z6	X7	Y7	Z7	X8	Y8	Z8	X9	Y9	Z9	X10	Y10	Z10	X11	Y11	Z11	X12	Y12	Z12	X13	Y13	Z13	X14	Y14	Z14	X15	Y15	Z15	X16	Y16	Z16	X17	Y17	Z17	X18	Y18	Z18	X19	Y19	Z19	X20	Y20	Z20	X21	Y21	Z21	
56	1.8666666666666667	-0.19416525284816835	1.8896107447634023	-0.6072496660090902	-0.2132669178958513	1.8874699916448057	-0.5396439724022299	-0.20633423818220473	1.738442563552589	-0.5151809395814483	-0.20247772199616834	1.5849258838917617	-0.4830682834975935	-0.23292484047492895	1.543419108840144	-0.4593980210258564	-0.22896614454475236	1.5499304283066055	-0.43233501584999035	-0.19993427467905517	1.5769457020100388	-0.49818669989351366	-0.1756068759991545	1.8940482019119222	-0.6730789017363222	-0.18639075852166193	1.740170467320736	-0.6530211716825993	-0.17209580390114051	1.5900679664312993	-0.6383400799004487	-0.18981633284425586	1.5446099061492247	-0.6612715484633831	-0.1783886246852859	1.5531971461125704	-0.6820676959607792	-0.1683359628037247	1.5778925472569836	-0.6155300296330138	-0.1973087414148653	2.0551813416601528	-0.6112565200048634	-0.22005067132476772	2.125115394150147	-0.6038701415379573	-0.22257824844109825	2.050386661135749	-0.5305162268337541	-0.26085364975328973	2.0157674231890943	-0.539521689594004	-0.3093678878923898	2.0128140567457447	-0.6033374754884977	-0.16855332614161453	2.0591995276214496	-0.6973695305546789	-0.13599456977776606	1.9834208870390053	-0.7270506079242056	-0.14191420394595386	1.914865140151273	-0.7551163472699858
57	1.9	-0.1934242483348224	1.8925794586007338	-0.6251257305134498	-0.2098766073457237	1.8896233767218593	-0.5651700204343024	-0.20626650474377745	1.7385813408937567	-0.5242389965415656	-0.2027348082986784	1.5861664515608784	-0.4827623116026892	-0.22906513374780912	1.5450206292614124	-0.4634375334506245	-0.22683827215385674	1.551854758201308	-0.4350739450705389	-0.19944223649195403	1.576978885344437	-0.4940061759562767	-0.17374336320226128	1.894563818941433	-0.6872119588929319	-0.1819128640753901	1.7392125804963405	-0.6659772695739606	-0.1743970765242714	1.5873792642637112	-0.6309787219626268	-0.19054822571431723	1.5440428733448113	-0.6645072570923533	-0.17600005743578426	1.5524429143685725	-0.6843565754981789	-0.17078340169028416	1.5759373102279957	-0.6080238761235719	-0.19769945743159745	2.0548302282632864	-0.6312529384522051	-0.22172247888827024	2.126927242154309	-0.6188299916677684	-0.22642524682737591	2.0497179930084277	-0.5433092354442535	-0.2606466212868042	2.015011928421145	-0.5559487423582576	-0.30526237072728607	2.0076406231024495	-0.623977489568134	-0.16883902101523973	2.0598821629082598	-0.709040784148377	-0.13834083248045786	1.9913045641775806	-0.7379021289251707	-0.13893804213536265	1.9167070227336493	-0.7720369775780827
58	1.9333333333333333	-0.19000201621543147	1.8915585626938685	-0.6327377752766125	-0.20945067246667248	1.8885176280648	-0.5736481046651377	-0.203667321044871	1.7373502025465153	-0.5268758403034863	-0.20246448092179278	1.5876145541381232	-0.4833712658455303	-0.232747825252129	1.5427993204848298	-0.45946526184099046	-0.22865745614849547	1.5506402623650473	-0.4329381595161282	-0.19908718485543384	1.5777080256841882	-0.49479814324325777	-0.17025548760815132	1.893744138214039	-0.6948300724747151	-0.18032980180667213	1.738063680306431	-0.6715747396309849	-0.17297241475646116	1.5889192142347812	-0.6370111770741451	-0.18972747443566848	1.5444049114916278	-0.661277830490173	-0.17610265886170715	1.5528730851246397	-0.6842870576300287	-0.17106395997573073	1.5783441626859402	-0.6126037443445098	-0.19629629142265256	2.0548082668395975	-0.6360830107299319	-0.22248044826213778	2.128111395745754	-0.6216026769730544	-0.22532093979665713	2.048578722775207	-0.5479790960730696	-0.258576497864025	2.0124583140181924	-0.5572000660055308	-0.3064086652029943	2.005539590399226	-0.6185673443557044	-0.1661348994040712	2.060219042065024	-0.7194795233048583	-0.13631560651203614	1.9852531707290804	-0.750858788340521	-0.13596188032477144	1.9185489053160254	-0.7889576078861794
59	1.9666666666666666	-0.18965738099543802	1.8904931734634052	-0.6412503321102753	-0.20549260878674677	1.886068691290234	-0.5778792669419489	-0.20346017467634792	1.7390111685462266	-0.5318201100593205	-0.203440479364421	1.5875554821190654	-0.4865667804002176	-0.22953070204025383	1.5419281046447768	-0.4584526237381096	-0.2274775874994536	1.5503022717275041	-0.42984198932299744	-0.19915335946548252	1.5781613287829956	-0.49469990604562625	-0.17262193132765236	1.8938051008961487	-0.704344942506359	-0.1784971715099621	1.738101249423164	-0.6734949528520009	-0.17322135990151522	1.5876293035159583	-0.6364147774139597	-0.18975582114273518	1.5414559817090325	-0.6609454192279572	-0.17632340203543387	1.551357570723188	-0.6836859506482312	-0.17166355325292498	1.5760018476424649	-0.6113529860982777	-0.19294845257698467	2.0551604318008283	-0.6435541752734861	-0.22047869152522664	2.1268331347412777	-0.6231166109762571	-0.2192118430545696	2.048763810212075	-0.5545474779303945	-0.25876663075117257	2.005268045673187	-0.5475438689093841	-0.302560690979317	2.003984519522703	-0.6061805976864478	-0.16550520393019302	2.0630697227386467	-0.7282297545515832	-0.13606036351174478	1.9876431793749678	-0.7625381664148074	-0.1312738526157138	1.9202712359713203	-0.8057959486773604
60	2.0	-0.18543856449170443	1.8920804738949455	-0.6462276775597626	-0.2042435041722672	1.88761422042692	-0.5836067615251583	-0.20414281781028348	1.7402532513406008	-0.5355216916598389	-0.2038278463903497	1.5873233227817707	-0.4857875501212269	-0.23113599305777863	1.5452749453461752	-0.46135326019221046	-0.226902621618585	1.55228139612733	-0.43506757449730726	-0.19962495089191737	1.575497121856072	-0.49343100451151345	-0.16836307357885993	1.8952592072174552	-0.7093120710933963	-0.17830863629948362	1.73680847548565	-0.6736863562042015	-0.1731651412252793	1.5875817352679618	-0.636441110005971	-0.19039642993693942	1.542432074417523	-0.6646856600719326	-0.17678679159981514	1.5518184820643786	-0.6874398871844994	-0.16951792515158404	1.5762712071817175	-0.6134850086521115	-0.19084615785541117	2.0564290413540967	-0.6462933281163262	-0.22044125715810986	2.1254957300151283	-0.6225174678435159	-0.21831234587548953	2.047573420233734	-0.5516318562651991	-0.2605815393335096	1.9913494662305702	-0.5067503469950188	-0.2956313328865459	1.9983207093023336	-0.5831151195973955	-0.16407803232856336	2.0630164328996434	-0.7337358010422292	-0.1317166451783185	1.9886100312794788	-0.7791615028570562	-0.12733984999999418	1.9195662288890245	-0.8250532143194491
61	2.033333333333333	-0.18392583966421513	1.8934979317244867	-0.651863216332764	-0.19902056561482148	1.8888266964108256	-0.5852737026089296	-0.20218048503074906	1.7403448081378965	-0.5377667115854692	-0.20072572661619675	1.5891077920989936	-0.48524563387531244	-0.23038901447405785	1.5441533930838005	-0.4621954864272699	-0.22747828115881943	1.5505848513690537	-0.42967143822357035	-0.19839692474546328	1.5799799152575296	-0.4911011390013582	-0.16558375298289543	1.89681410433489	-0.7203843469488039	-0.17697056058248628	1.7369225066857725	-0.6790927926023449	-0.17376342640774978	1.588895268502752	-0.6403090352638113	-0.19030188864503983	1.5424494870796142	-0.6647133052739326	-0.17676185199630273	1.5519708974679012	-0.6874867695811397	-0.1704396335665999	1.5789703735807485	-0.6172093994857047	-0.1908415289132975	2.054003865286372	-0.6460875927827595	-0.21836649882235978	2.125496268638918	-0.6246886397382133	-0.21532675819911676	2.047430754650287	-0.550780563761575	-0.24612254199986644	1.990346867224146	-0.48690841078026975	-0.2871375586665347	1.9947692869647624	-0.5737729754829517	-0.16268863496126965	2.061730601587461	-0.7386675573789285	-0.12867721820483236	1.9907057943805087	-0.8021502778396331	-0.12484698314707403	1.9186790187217222	-0.8388347912407089
